{"title":"Dungeons &amp; Dragons 3 -The Book of Vile Darkness [2012] 720p","uid":8838116,"size":1169230705,"categoryP":"video","categoryS":"hd___movies","magnet":"?xt=urn:btih:604e0b85d384259fefa1d1469573574ac54889bf&amp;dn=Dungeons+%26amp%3B+Dragons+3+-The+Book+of+Vile+Darkness+%5B2012%5D+720p+&amp;tr=udp%3A%2F%2Ftracker.openbittorrent.com%3A80&amp;tr=udp%3A%2F%2Fopen.demonii.com%3A1337&amp;tr=udp%3A%2F%2Ftracker.coppersurfer.tk%3A6969&amp;tr=udp%3A%2F%2Fexodus.desync.com%3A6969","seeders":4,"leechers":5,"uploader":"manucs2004","files":-1,"time":1377177706,"description":"\nDungeons &amp; Dragons 3 -The Book of Vile Darkness [2012] 720p BRRip x264 [Dual-Audio] [English 5.1 + Hindi 5.1] - Mafiaking\n\n\n\n\nOriginal 6Channel Hindi DVD Audio.\n\n\n\n-=Extreme Seeded=-\n\n\n\n182458350ac02f47c7506c4d5f7f7f3570208fbd.jpg\n\n\n\n15981250a2a3770f9f004bcdf00afac92833ebdb.png\n\nIMDB Rating: 4.1/10.0\n\n\nGENRE: Adventure | Fantasy\n\n\nGeneral\nUnique ID : 214366699972634667024740245293222839039 (0xA145864FD59F0B768C89EE992B73C2FF)\nComplete name : Dungeons &amp; Dragons 3 -The Book of Vile Darkness [2012] 720p BRRip[Dual-Audio][Eng 5.1+Hindi5.1] - Mafiaking.mkv\nFormat : Matroska\nFormat version : Version 4 / Version 2\nFile size : 1.08 GiB\nDuration : 1h 30mn\nOverall bit rate : 1 717 Kbps\nMovie name : Dungeons &amp; Dragons 3 -The Book of Vile Darkness [2012] 720p BRRip[Dual-Audio][Eng 5.1+Hindi5.1] - Mafiaking\nEncoded date : UTC 2013-08-21 12:55:35\nWriting application : mkvmerge v6.1.0 ('Old Devil') built on Mar 2 2013 14:32:37\nWriting library : libebml v1.3.0 + libmatroska v1.4.0\n\n\n\n\nvlcfile.png\n\n\nVideo\nID : 1\nFormat : AVC\nFormat/Info : Advanced Video Codec\nFormat profile : &lt;a class=&quot;__cf_email__&quot; href=&quot;/cdn-cgi/l/email-protection&quot; data-cfemail=&quot;eda5848a85ada1d9c3dc&quot;&gt;[email&amp;#160;protected]&lt;/a&gt;&lt;script cf-hash='f9e31' type=&quot;text/javascript&quot;&gt;\n/* &lt;![CDATA[ */!function(){try{var t=&quot;currentScript&quot;in document?document.currentScript:function(){for(var t=document.getElementsByTagName(&quot;script&quot;),e=t.length;e--;)if(t[e].getAttribute(&quot;cf-hash&quot;))return t[e]}();if(t&amp;&amp;t.previousSibling){var e,r,n,i,c=t.previousSibling,a=c.getAttribute(&quot;data-cfemail&quot;);if(a){for(e=&quot;&quot;,r=parseInt(a.substr(0,2),16),n=2;a.length-n;n+=2)i=parseInt(a.substr(n,2),16)^r,e+=String.fromCharCode(i);e=document.createTextNode(e),c.parentNode.replaceChild(e,c)}}}catch(u){}}();/* ]]&gt; */&lt;/script&gt;\nFormat settings, CABAC : Yes\nFormat settings, ReFrames : 3 frames\nCodec ID : V_MPEG4/ISO/AVC\nDuration : 1h 30mn\nBit rate : 1 462 Kbps\nWidth : 1 280 pixels\nHeight : 720 pixels\nDisplay aspect ratio : 16:9\nFrame rate mode : Constant\nFrame rate : 23.976 fps\nColor space : YUV\nChroma subsampling : 4:2:0\nBit depth : 8 bits\nScan type : Progressive\nBits/(Pixel*Frame) : 0.066\nStream size : 919 MiB (83%)\nTitle : Mafiaking\n\nLanguage : English\nDefault : Yes\nForced : No\n\n\nmusicfile1.png\n\nAudio #1\nID : 2\nFormat : AC-3\nFormat/Info : Audio Coding 3\nMode extension : CM (complete main)\nFormat settings, Endianness : Big\nCodec ID : A_AC3\nDuration : 1h 30mn\nBit rate mode : Constant\nBit rate : 128 Kbps\nChannel(s) : 6 channels\nChannel positions : Front: L C R, Side: L R, LFE\nSampling rate : 48.0 KHz\nBit depth : 16 bits\nCompression mode : Lossy\nDelay relative to video : 12ms\nStream size : 82.4 MiB (7%)\nTitle : Mafiaking\nLanguage : Hindi\nDefault : Yes\nForced : No\n\n\nmusicfile1.png\n\n\nAudio #2\nID : 3\nFormat : AC-3\nFormat/Info : Audio Coding 3\nMode extension : CM (complete main)\nFormat settings, Endianness : Big\nCodec ID : A_AC3\nDuration : 1h 30mn\nBit rate mode : Constant\nBit rate : 128 Kbps\nChannel(s) : 6 channels\nChannel positions : Front: L C R, Side: L R, LFE\nSampling rate : 48.0 KHz\nBit depth : 16 bits\nCompression mode : Lossy\nStream size : 82.4 MiB (7%)\nTitle : Mafiaking\nLanguage : English\nDefault : No\n\n\n18246892820679a54410d562de03bb2e9e4f7978.jpg\n\n1824689138f3784458bfd5ba0c5dc287ec8bd01b.jpg\n\n1824689064d10b60d698b89b21d1eaa1a3ac5d37.jpg","torrent":{"xt":"urn:btih:604e0b85d384259fefa1d1469573574ac54889bf","amp;dn":"Dungeons+%26amp%3B+Dragons+3+-The+Book+of+Vile+Darkness+%5B2012%5D+720p+","amp;tr":["udp%3A%2F%2Ftracker.openbittorrent.com%3A80","udp%3A%2F%2Fopen.demonii.com%3A1337","udp%3A%2F%2Ftracker.coppersurfer.tk%3A6969","udp%3A%2F%2Fexodus.desync.com%3A6969"],"infoHash":"604e0b85d384259fefa1d1469573574ac54889bf","infoHashBuffer":{"type":"Buffer","data":[96,78,11,133,211,132,37,159,239,161,209,70,149,115,87,74,197,72,137,191]},"announce":[],"urlList":[]}}